<svg width="0" height="0" xmlns="http://www.w3.org/2000/svg" style="position: absolute;">
  <defs>
    <mask id="blob-5" maskUnits="userSpaceOnUse" x="0" y="0" width="100%" height="100%">
      <path fill="white" d="M42.6,-72.3C56.1,-66,68.5,-56.4,76.8,-43.8C85,-31.2,89,-15.6,88.8,-0.1C88.7,15.4,84.4,30.8,75.1,41.7C65.9,52.5,51.8,58.8,38.4,67.5C25.1,76.1,12.5,87,-0.7,88.3C-13.9,89.5,-27.9,80.9,-39.4,71.3C-51,61.6,-60.1,50.8,-66.8,38.7C-73.4,26.7,-77.5,13.3,-77.6,-0.1C-77.7,-13.5,-73.8,-26.9,-67.3,-39.1C-60.7,-51.3,-51.5,-62.3,-39.9,-69.7C-28.2,-77.1,-14.1,-80.9,0.2,-81.3C14.5,-81.7,29.1,-78.7,42.6,-72.3Z" transform="translate(100 100)" />
    </mask>
  </defs>
</svg>  