<svg width="0" height="0" xmlns="http://www.w3.org/2000/svg" style="position: absolute;">
  <defs>
    <mask id="blob-6" maskUnits="userSpaceOnUse" x="0" y="0" width="100%" height="100%">
      <path fill="white" d="M43.5,-75.7C57.6,-67.3,70.9,-58,77.3,-45.2C83.7,-32.4,83.1,-16.2,81.9,-0.7C80.7,14.8,78.8,29.6,72.9,43.1C66.9,56.7,56.9,68.9,44.1,75.2C31.2,81.6,15.6,82,0.1,81.8C-15.4,81.6,-30.8,80.8,-42.9,74.1C-55,67.3,-63.8,54.6,-70,41.3C-76.1,28,-79.6,14,-80.8,-0.7C-82,-15.3,-80.8,-30.7,-73.9,-42.7C-67,-54.7,-54.3,-63.5,-41.1,-72.3C-27.8,-81.1,-13.9,-90,0.4,-90.7C14.7,-91.4,29.5,-84,43.5,-75.7Z" transform="translate(100 100)" />
    </mask>
  </defs>
</svg>  