<svg width="0" height="0" xmlns="http://www.w3.org/2000/svg" style="position: absolute;">
  <defs>
    <mask id="blob-2" maskUnits="userSpaceOnUse" x="0" y="0" width="100%" height="100%">
      <path fill="white" d="M39.6,-71.2C51.2,-61.8,60.6,-51.1,69,-39C77.4,-27,84.7,-13.5,85.8,0.6C86.9,14.7,81.8,29.5,74,42.5C66.2,55.6,55.7,67,42.9,75.2C30.1,83.5,15.1,88.7,0.7,87.4C-13.6,86.1,-27.2,78.4,-39.9,70.1C-52.5,61.7,-64.1,52.7,-70.4,41C-76.6,29.2,-77.5,14.6,-76,0.9C-74.5,-12.8,-70.6,-25.7,-65.1,-38.7C-59.5,-51.7,-52.3,-65,-41.2,-74.7C-30.1,-84.4,-15,-90.7,-0.5,-89.7C14,-88.8,27.9,-80.6,39.6,-71.2Z" transform="translate(100 100)" />
    </mask>
  </defs>
</svg>  