<svg width="0" height="0" xmlns="http://www.w3.org/2000/svg" style="position: absolute;">
  <defs>
    <mask id="blob-8" maskUnits="userSpaceOnUse" x="0" y="0" width="100%" height="100%">
      <path fill="white" d="M44.9,-75.5C58.4,-70,69.7,-58.4,74.4,-44.8C79.1,-31.2,77.2,-15.6,74.8,-1.4C72.3,12.8,69.4,25.6,65.1,40C60.9,54.4,55.4,70.4,44.3,79.4C33.3,88.3,16.6,90.2,1.5,87.5C-13.5,84.8,-27.1,77.6,-40.6,70C-54,62.5,-67.4,54.6,-74.5,42.8C-81.5,31.1,-82.2,15.5,-79.8,1.4C-77.3,-12.7,-71.8,-25.5,-65.3,-38.3C-58.9,-51,-51.6,-63.8,-40.5,-70.8C-29.5,-77.8,-14.7,-78.9,0.5,-79.7C15.7,-80.5,31.4,-81.1,44.9,-75.5Z" transform="translate(100 100)" />
    </mask>
  </defs>
</svg>  