<svg width="0" height="0" xmlns="http://www.w3.org/2000/svg" style="position: absolute;">
  <defs>
    <mask id="blob-9" maskUnits="userSpaceOnUse" x="0" y="0" width="100%" height="100%">
      <path fill="white" d="M42.8,-72.1C55.8,-66.7,66.7,-55.8,73,-42.8C79.3,-29.9,80.8,-15,80.9,0C80.9,15,79.5,30,73.7,43.9C68,57.7,58,70.4,45,75.8C32,81.1,16,79.1,1,77.3C-14,75.5,-27.9,74,-41.1,68.8C-54.2,63.5,-66.5,54.5,-73.3,42.5C-80.1,30.4,-81.3,15.2,-82.2,-0.5C-83.1,-16.2,-83.7,-32.5,-77.8,-46C-71.9,-59.6,-59.4,-70.5,-45.4,-75.3C-31.3,-80.1,-15.7,-78.8,-0.4,-78.1C14.9,-77.5,29.9,-77.5,42.8,-72.1Z" transform="translate(100 100)" />
    </mask>
  </defs>
</svg>  