<svg width="0" height="0" xmlns="http://www.w3.org/2000/svg" style="position: absolute;">
  <defs>
    <mask id="blob-3" maskUnits="userSpaceOnUse" x="0" y="0" width="100%" height="100%">
      <path fill="white" d="M37,-63.8C48.6,-57.5,58.9,-48.7,65.2,-37.7C71.4,-26.7,73.5,-13.3,74.4,0.5C75.3,14.4,75,28.8,70.2,42.1C65.3,55.5,55.8,67.9,43.3,73.8C30.9,79.7,15.4,79.1,-0.5,80C-16.5,80.9,-33,83.3,-46.6,78.1C-60.3,72.9,-71.1,60.1,-79.1,45.8C-87.1,31.5,-92.3,15.8,-90.1,1.3C-87.9,-13.2,-78.2,-26.4,-68.9,-38.4C-59.6,-50.4,-50.6,-61.1,-39.1,-67.6C-27.7,-74,-13.8,-76.1,-0.5,-75.1C12.7,-74.2,25.5,-70.2,37,-63.8Z" transform="translate(100 100)" />
    </mask>
  </defs>
</svg>  