<svg width="0" height="0" xmlns="http://www.w3.org/2000/svg" style="position: absolute;">
  <defs>
    <mask id="blob-1" maskUnits="userSpaceOnUse" x="0" y="0" width="100%" height="100%">
      <path fill="white" d="M38.7,-65.5C50.8,-60,61.8,-51,70,-39.5C78.2,-28,83.7,-14,84.8,0.6C85.8,15.3,82.6,30.5,74.8,42.8C67.1,55.2,54.9,64.6,41.7,71.5C28.5,78.3,14.2,82.6,-0.9,84.1C-16,85.7,-32.1,84.5,-44.6,77.3C-57.2,70.1,-66.3,56.8,-73.6,42.9C-80.9,29,-86.3,14.5,-86.5,-0.1C-86.7,-14.7,-81.6,-29.5,-73.6,-42.1C-65.6,-54.7,-54.7,-65.3,-41.9,-70.4C-29.2,-75.6,-14.6,-75.3,-0.7,-74.2C13.3,-73,26.6,-71,38.7,-65.5Z" transform="translate(100 100)" />
    </mask>
  </defs>
</svg>  