<svg width="0" height="0" xmlns="http://www.w3.org/2000/svg" style="position: absolute;">
  <defs>
    <mask id="blob-7" maskUnits="userSpaceOnUse" x="0" y="0" width="100%" height="100%">
      <path fill="white" d="M41.6,-73.4C53.3,-65.3,61.8,-52.9,68.6,-40C75.3,-27.1,80.4,-13.5,82.2,1.1C84.1,15.7,82.9,31.4,76.5,45C70.1,58.5,58.4,69.7,44.8,78.2C31.2,86.8,15.6,92.5,1.2,90.4C-13.2,88.3,-26.3,78.3,-38.4,68.9C-50.4,59.5,-61.4,50.6,-71.1,39.2C-80.8,27.8,-89.3,13.9,-89.5,-0.1C-89.6,-14.1,-81.3,-28.1,-72.2,-40.6C-63.1,-53,-53.1,-63.9,-40.9,-71.7C-28.8,-79.5,-14.4,-84.3,0.3,-84.8C14.9,-85.3,29.9,-81.5,41.6,-73.4Z" transform="translate(100 100)" />
    </mask>
  </defs>
</svg>  