<svg width="0" height="0" xmlns="http://www.w3.org/2000/svg" style="position: absolute;">
  <defs>
    <mask id="blob-4" maskUnits="userSpaceOnUse" x="0" y="0" width="100%" height="100%">
      <path fill="white" d="M44.6,-79C56.4,-70.5,63.7,-55.7,69.5,-41.5C75.3,-27.3,79.7,-13.6,81,0.7C82.3,15.1,80.4,30.3,74.1,43.6C67.8,57,57.1,68.6,44,76.7C30.9,84.8,15.4,89.3,0.1,89C-15.2,88.8,-30.4,83.9,-43.7,75.9C-56.9,67.9,-68.3,57,-75.5,43.8C-82.7,30.6,-85.7,15.3,-84.3,0.8C-82.9,-13.7,-77,-27.3,-69.4,-39.9C-61.9,-52.5,-52.7,-64,-40.9,-72.5C-29,-81,-14.5,-86.6,0.9,-88.3C16.4,-89.9,32.8,-87.6,44.6,-79Z" transform="translate(100 100)" />
    </mask>
  </defs>
</svg>  