<?xml version="1.0" standalone="no"?>
<svg
  xmlns:xlink="http://www.w3.org/1999/xlink"
  id="wave"
  viewBox="0 0 1440 100"
  version="1.1"
  xmlns="http://www.w3.org/2000/svg"
>
<path fill="#02506C" d="M0,60L40,58.3C80,57,160,53,240,58.3C320,63,400,77,480,83.3C560,90,640,90,720,85C800,80,880,70,960,58.3C1040,47,1120,33,1200,36.7C1280,40,1360,60,1440,66.7C1520,73,1600,67,1680,56.7C1760,47,1840,33,1920,23.3C2000,13,2080,7,2160,13.3C2240,20,2320,40,2400,51.7C2480,63,2560,67,2640,68.3C2720,70,2800,70,2880,63.3C2960,57,3040,43,3120,35C3200,27,3280,23,3360,30C3440,37,3520,53,3600,60C3680,67,3760,63,3840,63.3C3920,63,4000,67,4080,61.7C4160,57,4240,43,4320,38.3C4400,33,4480,37,4560,38.3C4640,40,4720,40,4800,48.3C4880,57,4960,73,5040,70C5120,67,5200,43,5280,31.7C5360,20,5440,20,5520,16.7C5600,13,5680,7,5720,3.3L5760,0L5760,100L5720,100C5680,100,5600,100,5520,100C5440,100,5360,100,5280,100C5200,100,5120,100,5040,100C4960,100,4880,100,4800,100C4720,100,4640,100,4560,100C4480,100,4400,100,4320,100C4240,100,4160,100,4080,100C4000,100,3920,100,3840,100C3760,100,3680,100,3600,100C3520,100,3440,100,3360,100C3280,100,3200,100,3120,100C3040,100,2960,100,2880,100C2800,100,2720,100,2640,100C2560,100,2480,100,2400,100C2320,100,2240,100,2160,100C2080,100,2000,100,1920,100C1840,100,1760,100,1680,100C1600,100,1520,100,1440,100C1360,100,1280,100,1200,100C1120,100,1040,100,960,100C880,100,800,100,720,100C640,100,560,100,480,100C400,100,320,100,240,100C160,100,80,100,40,100L0,100Z"/></svg>
